<svg width="368" height="368" viewBox="0 0 368 368" fill="none" xmlns="http://www.w3.org/2000/svg">
<path d="M215.424 66.0048L270.115 270.115L66.0048 215.424L215.424 66.0048Z" fill="#9E00DC" stroke="#2F2929" stroke-width="8"/>
<rect x="96" y="100" width="168" height="168" rx="84" fill="#2F2929" stroke="#9E00DC" stroke-width="8"/>
<circle cx="188" cy="216" r="25" fill="#151313"/>
<path d="M188 191C223 191 222 241 188 241" stroke="#9E00DC" stroke-width="4"/>
<path d="M182.45 229.7C181.817 229.7 181.158 229.558 180.475 229.275C179.808 229.008 179.333 228.575 179.05 227.975C178.933 227.758 178.858 227.525 178.825 227.275C178.808 227.042 178.8 226.808 178.8 226.575V226.3C178.8 226.167 178.817 226.042 178.85 225.925C178.883 225.825 178.967 225.775 179.1 225.775C179.133 225.775 179.15 225.792 179.15 225.825C179.15 225.925 179.142 226.025 179.125 226.125C179.108 226.225 179.1 226.333 179.1 226.45C179.1 227.217 179.342 227.8 179.825 228.2C180.325 228.6 180.942 228.8 181.675 228.8C182.725 228.8 183.692 228.542 184.575 228.025C185.458 227.508 186.258 226.8 186.975 225.9C187.675 225.033 188.242 224.183 188.675 223.35C189.125 222.533 189.517 221.7 189.85 220.85C190.183 220 190.525 219.125 190.875 218.225C190.442 218.875 189.842 219.475 189.075 220.025C188.308 220.558 187.475 220.983 186.575 221.3C185.692 221.633 184.833 221.8 184 221.8C183.117 221.8 182.283 221.642 181.5 221.325C180.733 221.025 180.117 220.567 179.65 219.95C179.183 219.333 178.95 218.558 178.95 217.625C178.95 216.542 179.158 215.483 179.575 214.45C179.992 213.417 180.55 212.458 181.25 211.575C181.95 210.675 182.733 209.9 183.6 209.25C184.367 208.667 185.25 208.192 186.25 207.825C187.267 207.458 188.275 207.275 189.275 207.275C189.692 207.275 190.083 207.308 190.45 207.375C190.817 207.425 191.192 207.542 191.575 207.725C191.908 207.875 192.175 208.067 192.375 208.3C192.575 208.517 192.675 208.767 192.675 209.05C192.675 209.083 192.675 209.125 192.675 209.175C192.675 209.225 192.667 209.267 192.65 209.3C192.583 209.567 192.425 209.875 192.175 210.225C191.942 210.558 191.758 210.908 191.625 211.275C191.608 211.342 191.517 211.4 191.35 211.45C191.183 211.483 191.117 211.467 191.15 211.4C191.283 211.183 191.383 210.917 191.45 210.6C191.533 210.283 191.575 209.967 191.575 209.65C191.575 209.417 191.55 209.2 191.5 209C191.467 208.783 191.4 208.6 191.3 208.45C191.133 208.15 190.875 207.942 190.525 207.825C190.175 207.708 189.8 207.65 189.4 207.65C189.017 207.65 188.633 207.692 188.25 207.775C187.867 207.858 187.533 207.95 187.25 208.05C186.283 208.4 185.358 208.95 184.475 209.7C183.692 210.383 182.992 211.175 182.375 212.075C181.775 212.975 181.3 213.9 180.95 214.85C180.6 215.8 180.425 216.708 180.425 217.575C180.425 218.458 180.592 219.175 180.925 219.725C181.275 220.275 181.733 220.683 182.3 220.95C182.867 221.2 183.475 221.325 184.125 221.325C185.475 221.325 186.658 221.017 187.675 220.4C188.708 219.767 189.583 218.942 190.3 217.925C191.017 216.908 191.567 215.817 191.95 214.65H189.375C189.175 214.65 188.9 214.667 188.55 214.7C188.2 214.717 187.842 214.775 187.475 214.875C187.108 214.958 186.8 215.1 186.55 215.3C186.3 215.5 186.175 215.775 186.175 216.125C186.175 216.242 186.192 216.367 186.225 216.5C186.258 216.617 186.283 216.708 186.3 216.775L186.075 216.925C185.958 216.708 185.817 216.483 185.65 216.25C185.5 216 185.417 215.8 185.4 215.65C185.383 215.517 185.392 215.342 185.425 215.125C185.458 214.908 185.567 214.717 185.75 214.55C185.95 214.367 186.233 214.25 186.6 214.2C186.983 214.133 187.375 214.1 187.775 214.1C188.142 214.1 188.492 214.117 188.825 214.15C189.158 214.167 189.425 214.175 189.625 214.175H194.375L194.1 214.475C193.867 214.475 193.608 214.517 193.325 214.6C193.042 214.667 192.808 214.817 192.625 215.05C192.258 215.517 191.975 216.042 191.775 216.625C191.592 217.208 191.4 217.825 191.2 218.475C190.867 219.658 190.542 220.817 190.225 221.95C189.908 223.1 189.483 224.183 188.95 225.2C188.433 226.233 187.675 227.183 186.675 228.05C186.142 228.5 185.475 228.883 184.675 229.2C183.875 229.533 183.133 229.7 182.45 229.7ZM194.154 221.15C193.988 221.15 193.813 221.092 193.629 220.975C193.463 220.842 193.329 220.717 193.229 220.6C193.213 220.567 193.279 220.5 193.429 220.4C193.579 220.283 193.738 220.175 193.904 220.075C194.088 219.975 194.188 219.933 194.204 219.95C194.338 220.017 194.471 220.092 194.604 220.175C194.738 220.242 194.879 220.267 195.029 220.25H195.129C195.213 220.25 195.254 220.275 195.254 220.325C195.254 220.375 195.196 220.458 195.079 220.575C194.929 220.692 194.771 220.817 194.604 220.95C194.454 221.083 194.304 221.15 194.154 221.15Z" fill="#9E00DC"/>
<path d="M182.22 138.998V119.072C182.22 118.492 182.707 118.033 183.285 118.083C197.98 119.347 220.004 126.179 229.884 144.045C235.351 153.932 237.099 167.198 231.829 184.77C231.703 185.19 231.313 185.48 230.875 185.48H207.322H183.032C172.69 185.48 161.906 193.67 155.363 205.147C155.19 205.45 155.053 205.786 154.961 206.122C149.366 226.485 157.187 238.117 166.841 244.153C168.15 244.971 167.852 245.665 166.361 245.265C152.538 241.516 120.352 223.837 125.566 185.48C127.899 168.314 146.674 137.352 182.22 138.998Z" fill="#151313"/>
<circle cx="201" cy="153" r="10" fill="#9E00DC"/>
<circle cx="208" cy="153" r="7" fill="#151313"/>
</svg>
